<?xml version="1.0" encoding="utf-8"?>
<!-- Generator: Adobe Illustrator 17.0.0, SVG Export Plug-In . SVG Version: 6.00 Build 0)  -->
<!DOCTYPE svg PUBLIC "-//W3C//DTD SVG 1.1//EN" "http://www.w3.org/Graphics/SVG/1.1/DTD/svg11.dtd">
<svg version="1.1" id="图层_1" xmlns="http://www.w3.org/2000/svg" xmlns:xlink="http://www.w3.org/1999/xlink" x="0px" y="0px"
	 width="400px" height="106.309px" viewBox="0 0 400 106.309" enable-background="new 0 0 400 106.309" xml:space="preserve">
<g>
	<path d="M156.433,0l-54.711,58.15c-3.44,3.441-7.208,7.372-12.941,9.665v38.494H67.487V67.815
		c-5.569-2.13-9.665-6.061-13.104-9.665L0,0h27.028l43.408,46.029c2.785,2.949,5.406,4.423,7.699,4.423
		c2.621,0,5.077-1.474,7.698-4.423L129.078,0H156.433z"/>
	<g>
		<path d="M279.477,18.27h-111.24V0h122.175c10.605,0,14.834,5.22,14.834,12.241c0,5.055-2.114,8.805-7.004,13.86l-75.856,79.771
			h-28.215L279.477,18.27z"/>
		<path d="M317.634,100.133V88.909c8.214,2.53,21.809,5.684,40.158,5.684c22.129,0,29.094-3.01,29.094-10.6
			c0-7.27-5.86-8.855-16.444-10.584l-25.299-4.275c-17.709-2.994-27.205-7.43-27.205-20.864c0-14.235,9.335-21.36,40.479-21.36
			c14.075,0,28.47,1.905,36.219,3.955V42.25c-8.695-2.21-21.985-4.259-36.219-4.259c-22.609,0-27.349,3.154-27.349,9.799
			c0,6.485,5.22,8.07,16.925,9.96l25.443,4.275C390.521,64.858,400,69.614,400,82.888c0,16.14-12.169,22.769-42.368,22.769
			C338.177,105.657,324.263,102.343,317.634,100.133z"/>
	</g>
</g>
</svg>
