<?xml version="1.0" encoding="utf-8"?>
<!-- Generator: Adobe Illustrator 22.0.1, SVG Export Plug-In . SVG Version: 6.00 Build 0)  -->
<svg version="1.1" id="图层_1" xmlns="http://www.w3.org/2000/svg" xmlns:xlink="http://www.w3.org/1999/xlink" x="0px" y="0px"
	 viewBox="0 0 183 26.7" style="enable-background:new 0 0 183 26.7;" xml:space="preserve">
<g>
	<g>
		<path d="M121.7,5.9h-9.4v1.5h8.2v12.1c0,0.5-0.1,0.8-0.7,0.7c-1-0.1-3.5-1-4.5-1.5v1.7c1.7,0.9,3.9,1.5,4.9,1.5
			c0.7,0,1.3-0.2,1.6-0.5c0.3-0.3,0.4-0.9,0.4-1.7V6.4C122.2,6.1,122,5.9,121.7,5.9z M110.9,14.2l1,3.8c-1.9,0.3-3.5,0.4-5.3,0.5
			c2-2.8,4-5.8,6.3-9.9H111l-1.3,2.2c-1.3,0.2-2.3,0.3-3.4,0.3c1.1-1.6,2.2-3.7,3.3-6h-1.9c-0.9,1.9-2.2,4.2-3.9,6.7
			c-0.3,0.4-0.1,0.9,0.4,0.9c1.4,0,3-0.1,4.5-0.3c-1.4,2.2-3,4.6-4.7,6.8c-0.3,0.4-0.1,0.9,0.3,0.9c2.8,0,5.4-0.2,7.9-0.6l0.3,1.2
			h1.5l-1.7-6.4H110.9z M136.6,6.8c1-0.1,2-0.3,2.8-0.6V4.8c-0.8,0.2-1.8,0.4-2.8,0.5c-1,0.1-2,0.2-2.9,0.2h-5.9V7h5.9
			C134.6,7,135.6,6.9,136.6,6.8z M138.8,21.2l2.1,0.8c3-1.8,5.1-3.8,6.9-6.2h-2.2C144,17.7,142,19.4,138.8,21.2z M137.9,11l0.9-2.9
			h-1.7l-0.9,2.9H137.9z M147,5.1h-2.2c-1.2,1.4-2.9,2.8-5.2,4.2l2,0.6C143.7,8.6,145.7,6.8,147,5.1z M147.3,10.3h-2.2
			c-1.2,1.4-3.2,3.1-5.5,4.5l2,0.6C143.7,14.1,145.7,12.2,147.3,10.3z M133.1,11h1.7L134,8.2h-1.7L133.1,11z M136.7,13.9h2.9v-1.4
			h-4.9v-1h-1.8v1h-4.9v1.4h2.8c-0.5,2.1-1.5,4.6-2.8,6.7l1.8,0.3c1.2-1.9,2.1-4.4,2.7-7h0.5v8h1.8v-8h0.4l2,6.4l1.8,0L136.7,13.9z
			 M129.3,11h1.8l-1-2.9h-1.7L129.3,11z M159.9,5.7h-1.5l-1,2.9h1.5L159.9,5.7z M154.8,8.6l-1-2.9h-1.6l1,2.9H154.8z M159.7,14.6
			l-2.7-1.8v-1.7h2.6V9.7H157V4.8h-1.8v4.9h-3v1.4h1.9c-0.5,2.6-1.2,5-2.1,7.5h1.5c0.7-2.2,1.3-4.4,1.7-6.7v9.9h1.8v-7.5l2.7,2V14.6
			z M172.7,11.7c-2.1-1.9-3.6-3.9-4.5-6.5h-1.8c0.9,2.5,1.9,4.5,3.5,6.3c-0.1,0-0.2-0.1-0.3-0.1h-7.9c1.6-1.8,2.7-3.8,3.6-6.3h-1.8
			c-1.1,2.7-2.3,4.6-4.4,6.6l1.5,0.8l0.9-1V13h1.6c-0.1,4.1-1.4,6.6-4.2,8.9h2.5c2.1-2,3.5-4.7,3.5-8.9h3.3v6.5
			c0,0.6-0.2,0.8-0.8,0.7c-0.5-0.1-1.5-0.4-2.8-1v1.6c1.1,0.5,2.1,0.9,2.9,1c0.9,0.1,1.5,0.1,2-0.3c0.4-0.3,0.6-1,0.6-1.9v-7.5
			c0-0.1,0-0.1,0-0.2l0.9,0.8L172.7,11.7z M23.7,4.8c0-0.8-0.5-1.3-1.7-1.3H0.8v3h17.1L1.2,20c-0.9,0.7-1.1,1.2-1.1,1.9
			c0,0.8,0.5,1.4,1.7,1.4h21.7v-3H5.9L22.5,6.7C23.3,6,23.7,5.5,23.7,4.8z M41.7,11c-2.8,0-6.1,0.1-8.6,0.3c0.2-1.6,0.5-3,0.8-4.7
			H52V3.5H30.6l-1.3,7.8c-0.3,1.8,0.2,2.9,2.7,2.9c3.2-0.1,6-0.2,9.3-0.2c5.8,0,7.9,0.4,7.9,3.2c0,2.6-2.6,3.5-8.9,3.5
			c-4.3,0-8.9-0.8-11.3-1.3v3.2c1.8,0.4,6.2,1.2,11.3,1.2c8.6,0,13-1.5,13-6.5C53.3,12.1,49.6,11,41.7,11z M73.7,9l-4.4,4.6
			c-0.5,0.5-0.9,0.7-1.2,0.7s-0.7-0.2-1.2-0.7L62.4,9h-4.6l6.8,7.1l-6.8,7.2h4.6l4.5-4.8c0.3-0.4,0.6-0.7,1.2-0.7
			c0.5,0,0.9,0.3,1.2,0.7l4.4,4.8h4.6c-2.1-2.3-4.6-4.9-6.7-7.2L78.4,9H73.7z"/>
	</g>
</g>
<g>
	<path d="M179.9,26.6H94.6c-1.8,0-3.2-1.4-3.2-3.2V3.2c0-1.8,1.4-3.2,3.2-3.2h85.3c1.8,0,3.2,1.4,3.2,3.2v20.2
		C183.1,25.1,181.6,26.6,179.9,26.6z M94.6,0.6c-1.4,0-2.6,1.2-2.6,2.6v20.2c0,1.4,1.2,2.6,2.6,2.6h85.3c1.4,0,2.6-1.2,2.6-2.6V3.2
		c0-1.4-1.2-2.6-2.6-2.6H94.6z"/>
</g>
</svg>
